<svg xmlns="http://www.w3.org/2000/svg" version="1.1" xmlnsxlink="http://www.w3.org/1999/xlink" xmlnssvgjs="http://svgjs.dev/svgjs" width="2000" height="1247" viewBox="0 0 2000 1247"><g transform="matrix(1,0,0,1,-1.212117878906156,0.504858299595071)"><svg viewBox="0 0 396 247" data-background-color="#ffffff" preserveAspectRatio="xMidYMid meet" height="1247" width="2000" xmlns="http://www.w3.org/2000/svg" xmlnsxlink="http://www.w3.org/1999/xlink"><defs></defs><g id="tight-bounds" transform="matrix(1,0,0,1,0.2399993400234166,-0.09999999999999432)"><svg viewBox="0 0 395.52 247.2" height="247.2" width="395.52"><g><svg></svg></g><g><svg viewBox="0 0 395.52 247.2" height="247.2" width="395.52"><g><path d="M98.665 0l46.477 77.837h-58.651l-36.836-61.93zM187.227 247.2l-46.297-77.837h46.297zM345.865 15.907l-36.836 61.93h-58.446l46.702-77.837zM208.293 247.2l0-77.837 46.297 0z" fill="#ff0000" data-fill-palette-color="tertiary"></path></g><g transform="matrix(1,0,0,1,0,92.51416074357572)"><svg viewBox="0 0 395.52 62.17167851284855" height="62.17167851284855" width="395.52"><g><svg viewBox="0 0 395.52 62.17167851284855" height="62.17167851284855" width="395.52"><g><svg viewBox="0 0 395.52 62.17167851284855" height="62.17167851284855" width="395.52"><g><svg viewBox="0 0 395.52 62.17167851284855" height="62.17167851284855" width="395.52"><g><svg viewBox="0 0 395.52 62.17167851284855" height="62.17167851284855" width="395.52"><g transform="matrix(1,0,0,1,0,0)"><svg width="395.52" viewBox="0.5 -28.75 182.88999938964844 28.75" height="62.17167851284855" data-palette-color="#ff0000"><path d="M6.2-28.75L6.2-28.75 16.5-11.5 16.5 0 0.5-26.9 6.2-28.75ZM29.3-28.75L29.3-28.75 18.95-11.5 18.95 0 34.95-26.9 29.3-28.75ZM39.45-28.75L39.45-28.75 45.75-28.75 45.75 0 39.45 0 39.45-28.75ZM54.75 0L54.75-28.75 60.45-28.75 70.75-19.05 70.75-11.5 61.05-20.85 61.05 0 54.75 0ZM73-17.2L82.9-8.1 82.9-28.75 89.2-28.75 89.2 0 83.3 0 73-9.9 73-17.2ZM100.39-28.75L100.39-28.75 110.69-11.5 110.69 0 94.69-26.9 100.39-28.75ZM123.49-28.75L123.49-28.75 113.14-11.5 113.14 0 129.14-26.9 123.49-28.75ZM133.64-28.75L133.64-28.75 139.94-28.75 139.94 0 133.64 0 133.64-28.75ZM148.94 0L148.94-28.75 164.94-28.75 164.94-23.1 155.24-23.1 155.24-5.85 164.94-5.85 164.94 0 148.94 0ZM183.39-3.4L183.39-25.3 177.74-28.75 167.39-28.75 167.39-23.1 177.09-23.1 177.09-5.85 167.39-5.85 167.39 0 177.74 0 183.39-3.4Z" opacity="1" transform="matrix(1,0,0,1,0,0)" fill="#ff0000" class="undefined-text-0" data-fill-palette-color="primary" id="text-0"></path></svg></g></svg></g></svg></g></svg></g></svg></g></svg></g></svg></g></svg><rect width="395.52" height="247.2" fill="none" stroke="none" visibility="hidden"></rect></g></svg></g></svg>